<svg xmlns="http://www.w3.org/2000/svg" viewBox="0 0 920 1750"><path fill="rgba(67,217,184,.5)" d="M889.72 1137.55l-2.91-.75-364.39 282.94-.7-.9-.51.11-94.77-451.5-32.51-15.75-16.73-8.11v.68h-1.46v-1.39l-1.89-.92-112.41-54.47-.29 1.03-1.41-.37.37-1.31-34.14-16.54-98.56-47.76-.59.81-1.16-.88.42-.57-114.65-55.57-.25.2-.9-1.15 102.87-79.98.08-.1.02.02 116.68-90.72-.18-.34 1.3-.66.05.09 100.5-78.14-.07-.32.65-.14 42.3-32.89-.15-54.54-.59.29-.64-1.31 1.23-.6-.01-4.54-.33-122.47-.99.18-.28-1.43 1.27-.23-.4-147.49-.87-.16.28-1.43.58.1-.35-127.48-.13-.06.64-1.31L489.97 76.8l.73.19-.04.14 132.63 65.11.33-.45 1.16.88-.16.22 114.21 56.07.45-.35.72.93 47.89 23.51 2.76-1.36.56 4.61-3.32-1.63-216.37 106.21-195.57 152.05.66 239.95 51.12 243.57 222.53 107.83 236.23 60.93 2.27-1.77M375.8 425.34l17.25-8.47 36.13-127.75-53.73 9.66.35 126.56zM551 241.05l38.19-52.2-123.83-22.27-34.13 120.68 98.99-17.81 20.78-28.4zm-18.7 28.04l151.34-27.22 37.63-29.25-130.48-23.47-58.49 79.94zM303.38 733.9l-2.36-4.48-44.18-83.78-74.34 101.61 40.78 36.46 52.69 47.11 27.41-96.92zm-26.2 98.01l56.95 50.93L375.69 920l-.13-49.23-71.19-135-27.19 96.14zm26.78-100.05l41.93-148.25-9.74-46.39-78.35 107.11 46.16 87.53zm.98 1.87l9.55 18.12 61.05 115.78-.39-144.6-16.9-80.53-11.71-55.81-41.6 147.04zm70.27-521.94l.23 85.51 54.17-9.74 34.29-121.23-88.87-15.98.18 61.44zm55.57 77.04l-17.88 63.21L394.81 416l44.01-21.6 90.15-123.23-98.19 17.66zM287.76 898.62l87.99 42.64-.05-19.29-91.37-81.71-7.59-6.78-14.88 52.59 25.9 12.55zm-113.5-55l86.26 41.8 15-53.03-93.89-83.95-53.34 72.91 45.97 22.27zm-61.08-156.4L12.71 765.33l55.69 26.99 58.56 28.38 53.58-73.24-34.83-31.14-32.53-29.1zm117.44-91.3l-116.27 90.4 63.02 56.36 4.03 3.61 74.67-102.08-7.47-14.17-17.98-34.12zm101.32-78.77l-100.15 77.86 25.25 47.88 78.71-107.59-1.71-8.14-2.1-10.01zm1.28-1l2.02 9.64 1.66 7.92 34.65-47.37-38.33 29.81zm4.09 19.48l9.43 44.95 26.67-94.3-36.1 49.35zm10.08 48.03l27.74 132.16-.62-228.04-27.12 95.88zM374.7 21.83l.35 127.02 89.27 16.06 24.61-87L374.7 21.83zm115.55 56.73l-22.26 78.7-2.24 7.91 124.39 22.37 10.23-13.99 22.04-30.12-132.16-64.87zm133.49 65.53l-12.29 16.8-19.71 26.95 131.07 23.58 14.73-11.45-113.8-55.88zM739 200.67l-13.3 10.34-.96.74 58.14 10.46L739 200.67zm-15.81 12.29l-25.33 19.69-11.14 8.66 97.03-17.45-60.56-10.9zm59.7 12.54l-98.64 17.74-107.06 83.23 205.7-100.97zm-151.21 56.76l49.48-38.47-150.1 27-89.41 122.22 129.1-63.37 60.93-47.38zm-66.62 51.79l-125.28 61.5-45.94 62.8-14.96 20.44 186.18-144.74zm-139.75 78.82l11.65-15.93-42.69 20.96-13.66 48.3-3.58 12.67 48.28-66zm-32.8 5.89l-16.71 8.2.01 4.72.12 45.68 16.58-58.6zm-15.3 523.2l21.37 10.36 24.14 11.7-45.56-40.74.05 18.68zm-.06-20.65l34.83 31.15 12.57 11.24-47.53-90.14.13 47.75zm-.52-191.24l.38 140.33 48.29 91.59-48.67-231.92zm429.66 467.41l75.8-58.86-28.56 11.47-25.6 10.28 14.96 7.25-.64 1.31-16.16-7.83-124.76 50.1 40.56 36.27 64.4-49.99zm-283.86-51.3l58.88 111.66 52.71-21.17 64.61-25.95-75.11-67.17-101.09 2.63zm99.49-4.04l-115.78-103.53-46.8-12.07 62.33 118.2 7.06-.18 93.19-2.42zm78.22 67.98l124.19-49.87-42.89-20.78-155.8 4.04 74.5 66.61zm-20.44 85.65l61.03-47.39-40.9-36.57-117.85 47.32 42.09 79.82 55.63-43.18zm-157.22 122.08l1.83-1.42 98.6-76.56-42.28-80.19-84.25 33.83 26.1 124.34zm-26.4-125.79l83.87-33.68-59.14-112.16-55.04 1.43 30.31 144.41zm-30.62-145.86l54.58-1.42-62.61-118.74-18.03-4.65.36-1.41 16.74 4.32-27.63-52.4 36.59 174.3zm-7.04-121.41l45.35 11.7-74.14-66.29 28.79 54.59zm-26.96-54.92l75.38 67.41 136.26 35.15-211.64-102.56zm218.3 105.78l-140.54-36.25 114.83 102.68 154.53-4.01-128.82-62.42zm7.16 1.85l124.84 60.5 51.97-1.35 47.7-1.24-224.51-57.91zm127.7 61.88l41.54 20.13 56.45-22.67-97.99 2.54z"/></svg>